<svg width="80" height="80" viewBox="0 0 80 80" fill="none" xmlns="http://www.w3.org/2000/svg">
<path d="M8 80C5.8 80 3.91667 79.2167 2.35 77.65C0.783333 76.0833 0 74.2 0 72V24C0 21.8 0.783333 19.9167 2.35 18.35C3.91667 16.7833 5.8 16 8 16H24V8C24 5.8 24.7833 3.91667 26.35 2.35C27.9167 0.783333 29.8 0 32 0H48C50.2 0 52.0833 0.783333 53.65 2.35C55.2167 3.91667 56 5.8 56 8V16H72C74.2 16 76.0833 16.7833 77.65 18.35C79.2167 19.9167 80 21.8 80 24V72C80 74.2 79.2167 76.0833 77.65 77.65C76.0833 79.2167 74.2 80 72 80H8ZM8 72H72V24H8V72ZM32 16H48V8H32V16ZM8 72V24V72ZM36 52V64H44V52H56V44H44V32H36V44H24V52H36Z" fill="#A39275" fill-opacity="0.4"/>
</svg>
